<svg width="1002" height="172" viewBox="0 0 1002 172" fill="none" xmlns="http://www.w3.org/2000/svg">
<path d="M949.868 38.5479C957.304 38.5479 963.657 40.4801 968.927 44.3446C974.255 48.2091 977.856 52.6298 979.73 57.6067H979.905V5.43649H1001.16V133.842H979.554V117.857H979.378C977.446 122.6 973.874 126.845 968.663 130.592C963.511 134.34 957.246 136.213 949.868 136.213C937.104 136.213 926.71 131.705 918.689 122.688C910.667 113.671 906.656 101.814 906.656 87.1172C906.656 72.5376 910.638 60.7978 918.601 51.8979C926.623 42.9979 937.045 38.5479 949.868 38.5479ZM927.384 87.1172C927.384 96.6612 929.697 104.449 934.322 110.48C939.006 116.452 945.623 119.438 954.172 119.438C958.622 119.438 962.603 118.56 966.116 116.803C969.629 115.047 972.44 112.646 974.548 109.601C976.714 106.557 978.354 103.131 979.466 99.3254C980.579 95.5194 981.135 91.4501 981.135 87.1172C981.135 82.9599 980.549 79.0077 979.378 75.2603C978.266 71.4544 976.626 68.0583 974.46 65.0722C972.294 62.086 969.454 59.7146 965.941 57.958C962.427 56.1429 958.504 55.2354 954.172 55.2354C945.799 55.2354 939.241 58.2215 934.498 64.1939C929.755 70.1662 927.384 77.8073 927.384 87.1172Z" fill="#111315"/>
<path d="M811.002 98.975V40.8324H831.642V94.6714C831.642 110.481 837.585 118.385 849.471 118.385C856.146 118.385 861.562 115.458 865.719 109.602C869.876 103.747 871.955 95.2276 871.955 84.0441V40.8324H892.858V133.843H872.306V117.507C866.393 130.096 857.112 136.39 844.465 136.39C838.551 136.39 833.398 135.453 829.007 133.579C824.674 131.706 821.19 129.071 818.555 125.675C815.979 122.279 814.076 118.356 812.846 113.906C811.617 109.456 811.002 104.479 811.002 98.975Z" fill="#111315"/>
<path d="M774.341 130.325C767.081 134.365 758.913 136.385 749.837 136.385C740.762 136.385 732.564 134.365 725.245 130.325C717.985 126.226 712.247 120.459 708.031 113.023C703.874 105.528 701.795 97.0084 701.795 87.4644C701.795 77.9203 703.874 69.4009 708.031 61.9062C712.247 54.4115 717.985 48.6148 725.245 44.5161C732.564 40.4175 740.762 38.3681 749.837 38.3681C758.854 38.3681 766.993 40.4175 774.254 44.5161C781.573 48.6148 787.311 54.4115 791.468 61.9062C795.625 69.4009 797.704 77.9203 797.704 87.4644C797.704 97.0084 795.625 105.528 791.468 113.023C787.311 120.459 781.602 126.226 774.341 130.325ZM722.171 87.4644C722.171 96.4814 724.718 104.064 729.812 110.212C734.965 116.36 741.64 119.434 749.837 119.434C757.917 119.434 764.534 116.36 769.686 110.212C774.839 104.064 777.415 96.4814 777.415 87.4644C777.415 78.3887 774.839 70.7476 769.686 64.5411C764.592 58.3345 757.976 55.2312 749.837 55.2312C741.64 55.2312 734.965 58.3345 729.812 64.5411C724.718 70.6891 722.171 78.3302 722.171 87.4644Z" fill="#111315"/>
<path d="M667.084 5.43649H687.987V133.842H667.084V5.43649Z" fill="#111315"/>
<path d="M649.569 94.4088C646.583 106.822 639.85 116.893 629.369 124.622C618.947 132.351 605.889 136.215 590.197 136.215C577.081 136.215 565.547 133.317 555.593 127.52C545.697 121.724 538.144 113.819 532.933 103.806C527.722 93.7355 525.116 82.347 525.116 69.6411C525.116 57.0524 527.722 45.7517 532.933 35.7393C538.203 25.6682 545.844 17.7051 555.856 11.8499C565.869 5.99461 577.433 3.06699 590.549 3.06699C606.065 3.06699 618.742 6.75579 628.578 14.1334C638.474 21.511 645.529 31.7284 649.745 44.7856H627.964C624.568 36.9981 619.825 31.1722 613.735 27.3077C607.646 23.3847 599.917 21.4232 590.549 21.4232C581.707 21.4232 573.92 23.5896 567.186 27.9225C560.511 32.2554 555.446 38.0521 551.992 45.3126C548.596 52.5145 546.898 60.624 546.898 69.6411C546.898 78.6582 548.596 86.797 551.992 94.0575C555.388 101.259 560.423 107.027 567.098 111.36C573.832 115.693 581.649 117.859 590.549 117.859C600.268 117.859 608.29 115.78 614.614 111.623C620.937 107.466 625.446 101.728 628.139 94.4088H649.569Z" fill="#111315"/>
<path d="M488.539 40.8333H510.145V124.885C510.145 132.263 508.915 138.792 506.456 144.471C503.997 150.209 500.6 154.806 496.268 158.26C491.993 161.715 487.163 164.32 481.776 166.077C476.389 167.834 470.592 168.712 464.386 168.712C452.031 168.712 441.814 165.784 433.734 159.929C425.712 154.074 421.116 146.345 419.944 136.742H440.496C442.136 147.165 450.099 152.376 464.386 152.376C471.939 152.376 477.853 150.297 482.127 146.14C486.402 141.983 488.539 135.659 488.539 127.169V115.839H488.363C483.562 127.959 473.842 134.02 459.204 134.02C446.381 134.02 435.959 129.628 427.937 120.845C419.974 112.004 415.992 100.381 415.992 85.9773C415.992 71.6319 419.944 60.1556 427.849 51.5484C435.754 42.8827 446.205 38.5498 459.204 38.5498C466.757 38.5498 473.022 40.1892 477.999 43.4682C482.976 46.7471 486.431 50.7287 488.363 55.4129H488.539V40.8333ZM436.72 85.9773C436.72 91.6568 437.657 96.8095 439.53 101.435C441.404 106.002 444.419 109.779 448.577 112.765C452.734 115.693 457.711 117.156 463.508 117.156C467.255 117.156 470.651 116.512 473.696 115.224C476.799 113.936 479.346 112.267 481.337 110.218C483.328 108.11 484.996 105.68 486.343 102.928C487.69 100.176 488.656 97.395 489.241 94.5845C489.827 91.774 490.12 88.9049 490.12 85.9773C490.12 82.4641 489.534 78.951 488.363 75.4378C487.251 71.9247 485.611 68.6457 483.445 65.601C481.337 62.4977 478.526 60.0093 475.013 58.1356C471.558 56.2033 467.723 55.2372 463.508 55.2372C457.828 55.2372 452.91 56.701 448.752 59.6287C444.654 62.5563 441.609 66.3036 439.618 70.8707C437.686 75.4378 436.72 80.4733 436.72 85.9773Z" fill="#111315"/>
<path d="M392.606 101.787C392.606 107.057 393.484 110.98 395.241 113.556C397.056 116.074 400.13 117.333 404.463 117.333H410.523V134.02L400.511 134.196C390.381 134.254 383.091 131.649 378.641 126.379C374.25 121.051 372.054 113.702 372.054 104.334V57.0822H357.475V40.8339H372.054V19.6671L392.606 10.4451V40.8339H410.699V57.0822H392.606V101.787Z" fill="#111315"/>
<path d="M323.109 5.43689H344.89V133.842H323.109V78.5982H266.459V133.842H244.766V5.43689H266.459V60.242H323.109V5.43689Z" fill="#111315"/>
<path d="M89.3154 7.31833C114.589 7.31833 135.077 27.8064 135.077 53.0797C135.077 59.0819 133.928 64.8169 131.828 70.0689L89.2919 70.066V32.6788L81.8457 32.6826C75.451 55.2564 63.1034 80.2368 48.5276 99.9676H91.069V136.108H47.7741C22.5008 136.108 2.0127 115.62 2.0127 90.3464C2.0127 66.2359 20.659 46.4808 44.3178 44.7141C48.2486 23.4358 66.8995 7.31838 89.3154 7.31833Z" fill="url(#paint0_linear_2726_9475)"/>
<path d="M147.379 70.0711C165.615 70.0711 180.398 84.8544 180.398 103.091C180.398 121.327 165.615 136.11 147.379 136.11H98.8691C105.36 113.863 117.521 89.4437 131.826 70.0711H147.379Z" fill="#74E3E7"/>
<defs>
<linearGradient id="paint0_linear_2726_9475" x1="68.5447" y1="7.31833" x2="68.5447" y2="136.108" gradientUnits="userSpaceOnUse">
<stop stop-color="#0A9599"/>
<stop offset="1" stop-color="#74E3E7"/>
</linearGradient>
</defs>
</svg>
